
        <svg xmlns="http://www.w3.org/2000/svg" xmlns:xlink="http://www.w3.org/1999/xlink" version="1.1" width="3191.6932907348237" 
        height="1476.038338658147" viewBox="0 0 3191.6932907348237 1476.038338658147">
			
			<g transform="scale(9.584664536741213) translate(10, 10)">
				<defs id="SvgjsDefs1287"></defs><g id="SvgjsG1288" featureKey="symbolFeature-0" transform="matrix(0.72,0,0,0.72,0,31)" fill="#48466d"><path xmlns="http://www.w3.org/2000/svg" fill="#48466d" d="M79.167,10.416C79.167,4.671,74.494,0,68.75,0c-5.744,0-10.417,4.671-10.417,10.416  c0,5.029,3.585,9.237,8.333,10.205v15.865l-25,19.642v-18.84C46.416,36.319,50,32.112,50,27.083c0-5.745-4.674-10.417-10.417-10.417  s-10.417,4.672-10.417,10.417c0,5.029,3.584,9.236,8.333,10.205v18.84l-25-19.642V20.621c4.749-0.968,8.333-5.176,8.333-10.205  C20.833,4.671,16.16,0,10.417,0C4.673,0,0,4.671,0,10.416c0,5.029,3.585,9.237,8.333,10.205v17.892L37.5,61.426v17.952  c-4.749,0.964-8.333,5.176-8.333,10.205c0,5.741,4.673,10.417,10.417,10.417S50,95.324,50,89.583c0-5.029-3.585-9.241-8.333-10.205  V61.426l29.167-22.913V20.621C75.583,19.653,79.167,15.445,79.167,10.416z M4.167,10.416c0-3.446,2.803-6.25,6.25-6.25  c3.446,0,6.25,2.804,6.25,6.25s-2.804,6.25-6.25,6.25C6.97,16.666,4.167,13.862,4.167,10.416z M68.75,16.666  c-3.447,0-6.25-2.804-6.25-6.25s2.803-6.25,6.25-6.25c3.446,0,6.25,2.804,6.25,6.25S72.197,16.666,68.75,16.666z"></path></g><g id="SvgjsG1289" featureKey="textGroupContainer" transform="matrix(1,0,0,1,312,0)" fill="#48466d"><rect xmlns="http://www.w3.org/2000/svg" y="0" height="1" width="1" opacity="0"></rect><rect xmlns="http://www.w3.org/2000/svg" y="0" x="-235" width="3" height="134"></rect></g><g id="SvgjsG1290" featureKey="nameFeature-0" transform="matrix(1.5506895121418545,0,0,1.5506895121418545,94.94794844967724,19.114261488142322)" fill="#48466d"><path d="M5.16 37.12 c0.96 2.2 2.6 -1 3.88 -4.96 c0.72 -2.32 1.8 -6.96 1.72 -9.24 c-0.04 -1.28 5.32 -0.88 5 1.8 c-0.4 2.88 -2.48 9.68 -1.28 12.4 c1 2.24 2.64 -1 3.88 -5 c-1.24 -1.36 -1.4 -4.44 -0.96 -6.64 c0.84 -3.88 5.36 -3.76 5 -1.32 c-0.24 1.64 -0.8 4.4 -1.68 7.16 c1.64 0.72 3.8 -0.72 4.32 -2.72 c0 -0.04 1.6 0.4 1.48 0.8 c-0.68 2.28 -3.28 4.72 -6.44 3.76 c-0.8 2.24 -1.84 4.28 -3.08 5.64 c-0.36 0.36 -0.76 0.68 -1.16 0.84 c-2.2 0.88 -4.88 0.12 -5.92 -2.12 c-0.2 -0.44 -0.32 -0.92 -0.4 -1.44 c-0.56 1.04 -1.16 2 -1.84 2.72 c-0.36 0.36 -0.76 0.68 -1.16 0.84 c-2.2 0.88 -4.88 0.12 -5.92 -2.12 c-1.68 -3.72 0.92 -11.84 0.84 -14.6 c-0.04 -1.28 5.32 -0.88 4.96 1.8 c-0.36 2.88 -2.44 9.68 -1.24 12.4 z M35.944 24.4 c0.88 3.92 -2.4 8.68 -5.84 8.04 c-0.2 3 0.36 5.64 2.24 5.76 c3 0.2 4.88 -3.36 5.56 -5.96 c0 -0.04 1.64 0.28 1.48 0.96 c-0.84 3.08 -2.2 5.6 -5.2 6.64 c-3.2 1.08 -7.64 -0.2 -8.84 -3.52 c-1.32 -3.72 0.12 -11 3.28 -13.6 c2.24 -1.8 6.56 -1.48 7.32 1.68 l0 0 z M31.384 26.439999999999998 c-0.48 1.24 -0.92 2.88 -1.12 4.44 c3.16 0.36 5.12 -6.52 3.56 -7.04 c-1.08 -0.36 -2.08 1.72 -2.44 2.6 z M45.248000000000005 38 c1.84 -1.64 2.92 -6.48 3.12 -9.96 c0.16 -2.64 -1.2 -4.92 -2.76 -1.76 c-1.36 2.8 -2.68 9.4 -1.76 11.56 c0.28 0.6 0.72 0.76 1.4 0.16 z M57.248000000000005 33.44 c-1.44 5.24 -5.88 7.68 -10.8 7.44 c-1.52 -0.04 -3 -0.76 -3.72 -2.08 c-0.08 -0.12 -0.12 -0.24 -0.2 -0.36 c-0.08 0.64 -0.16 1.32 -0.2 2 c-0.12 1.16 -4.2 0.2 -4.2 -3.36 c-0.04 -7.72 3.28 -20.04 3.2 -25.92 c0 -1.28 5.48 -0.88 5.4 1.84 c-0.08 3.16 -0.88 6.8 -1.84 11.48 c0.44 -0.52 0.96 -0.96 1.56 -1.2 c1.84 -0.84 4.12 0.16 5.04 1 l0.24 0.24 c2.16 2.64 1.2 9.8 -1 13.6 c1.72 -0.16 4.36 -2.24 5.08 -5.88 c0.04 -0.16 1.64 0.44 1.44 1.2 z M61.312 37.12 c0.96 2.2 2.6 -1 3.88 -4.96 c0.72 -2.32 1.8 -6.96 1.72 -9.24 c-0.04 -1.28 5.32 -0.88 5 1.8 c-0.4 2.88 -2.48 9.68 -1.28 12.4 c1 2.24 2.64 -1 3.88 -5 c-1.24 -1.36 -1.4 -4.44 -0.96 -6.64 c0.84 -3.88 5.36 -3.76 5 -1.32 c-0.24 1.64 -0.8 4.4 -1.68 7.16 c1.64 0.72 3.8 -0.72 4.32 -2.72 c0 -0.04 1.6 0.4 1.48 0.8 c-0.68 2.28 -3.28 4.72 -6.44 3.76 c-0.8 2.24 -1.84 4.28 -3.08 5.64 c-0.36 0.36 -0.76 0.68 -1.16 0.84 c-2.2 0.88 -4.88 0.12 -5.92 -2.12 c-0.2 -0.44 -0.32 -0.92 -0.4 -1.44 c-0.56 1.04 -1.16 2 -1.84 2.72 c-0.36 0.36 -0.76 0.68 -1.16 0.84 c-2.2 0.88 -4.88 0.12 -5.92 -2.12 c-1.68 -3.72 0.92 -11.84 0.84 -14.6 c-0.04 -1.28 5.32 -0.88 4.96 1.8 c-0.36 2.88 -2.44 9.68 -1.24 12.4 z M82.416 22.88 c-0.04 -1.28 5.32 -0.88 4.96 1.8 c-0.36 2.88 -2.44 9.72 -1.24 12.4 c0.64 1.48 2.72 0.08 4.12 -4.84 c0 0 1.64 0.36 1.48 0.88 c-1 3.72 -2.36 5.72 -4.24 6.48 c-2.2 0.88 -4.88 0.12 -5.92 -2.12 c-1.68 -3.72 0.92 -11.84 0.84 -14.6 z M84.056 10.879999999999999 c-0.4 -2 5.92 -1.68 5.48 1.12 c-0.24 1.4 -0.88 3.64 -1.6 5.64 c-1.2 3.28 -4.08 2.44 -3.96 1.8 c0.52 -2.48 0.44 -6.72 0.08 -8.56 z M97.08 24.68 c-0.16 1.32 -0.44 2.88 -0.76 4.52 c0.88 -2.32 2.32 -5.36 3.56 -6.36 c0.68 -0.52 1.48 -0.76 2.32 -0.72 c2.8 0.12 4.04 2 3.52 4.68 c-0.48 2.52 -1.92 7.96 -0.88 10.28 c0.68 1.48 2.72 0.08 4.16 -4.84 c0 0 1.6 0.36 1.48 0.88 c-1 3.68 -2.4 5.72 -4.28 6.48 c-2.16 0.88 -4.88 0.12 -5.88 -2.12 c-1.68 -3.64 0.28 -8.24 0.6 -12.04 c0.04 -0.6 -0.04 -0.96 -0.4 -0.6 c-2.56 2.48 -4.92 11.12 -6.04 14.64 l0 0.16 c0 0.72 -4.28 0.76 -4 -3.28 s1.32 -9.56 1.64 -13.48 c0.08 -1.28 5.32 -0.88 4.96 1.8 z M114.544 36.88 c0.52 1.2 1.28 0.76 2.08 -0.56 c2 -4.28 2.76 -8.44 2.36 -10.68 s-1.96 -1.52 -2.76 0.28 c-1.48 3.16 -2.8 8.48 -1.68 10.96 z M117.544 39.84 c0.2 -0.76 0.4 -1.68 0.64 -2.76 c-0.36 0.52 -0.72 1.04 -1.12 1.44 c-0.36 0.4 -0.76 0.72 -1.2 0.88 c-2.16 0.88 -4.84 0.12 -5.88 -2.12 c-1.68 -3.72 0.56 -13.2 4.2 -14.96 c0.12 -0.04 0.24 -0.12 0.36 -0.12 c1.16 -0.4 3.64 -0.36 4.96 1.12 c0.2 0.24 0.36 0.48 0.52 0.76 c0.04 0.04 0.08 0.08 0.08 0.12 c0.04 -0.56 0.04 -1.08 0.04 -1.52 c-0.04 -1.28 5.32 -0.88 5 1.8 c-0.52 4.44 -1.76 9.4 -2.8 13.84 c2.24 -1.16 4.2 -3.12 5.04 -5.72 c0.24 -0.72 1.84 -0.32 1.6 0.44 c-1 3.24 -4.28 6.28 -7.16 7.32 c-1.44 6.12 -3.68 12.6 -6.76 12.64 c-3.16 0.04 -5.72 -2.4 -5.04 -5.76 c0.76 -3.6 4.16 -6.12 7.52 -7.4 z M117.104 41.92 c-3.56 1.6 -5.08 3.72 -5.44 5.44 c-0.6 2.6 1.56 4.16 3.32 1.08 c0.76 -1.32 1.6 -4.36 2.12 -6.52 z"></path></g>
			</g>
		</svg>
	